<svg width="24.000000" height="24.000000" viewBox="0 0 24 24" fill="none" xmlns="http://www.w3.org/2000/svg" xmlns:xlink="http://www.w3.org/1999/xlink">
	<desc>
			Created with Pixso.
	</desc>
	<defs>
		<clipPath id="clip47_23518">
			<rect id="lock=yes, type=password" width="24.000000" height="24.000000" fill="white" fill-opacity="0"/>
		</clipPath>
	</defs>
	<g clip-path="url(#clip47_23518)">
		<path id="Union" d="M20.2849 8.70483C20.4634 8.48901 20.4341 8.1792 20.2183 8.00073C20.0027 7.82227 19.6929 7.85156 19.5144 8.06738C19.4836 8.10449 19.4363 8.16187 19.3726 8.2395C19.1611 8.49658 18.9946 8.69556 18.8735 8.83618C18.6687 9.07349 18.4714 9.29004 18.2817 9.4856C17.7886 9.99341 17.2822 10.425 16.7625 10.7805C16.3008 11.0959 15.8174 11.3594 15.3123 11.5708C14.2876 11.9995 13.1733 12.2139 11.9695 12.2139C11.0315 12.2139 10.1406 12.0728 9.29712 11.7905C8.54224 11.5378 7.8252 11.1724 7.14575 10.6938C6.61548 10.3203 6.09814 9.87012 5.59399 9.34351C5.302 9.03882 4.93994 8.62061 4.50781 8.08936L4.49243 8.07056C4.31567 7.85327 4.0061 7.82153 3.78906 7.99829C3.57178 8.17505 3.54004 8.48438 3.7168 8.70166L3.73193 8.72046C4.1814 9.27271 4.56128 9.71094 4.87158 10.0352C5.42065 10.6084 5.98682 11.1006 6.56982 11.5115C7.33545 12.0508 8.1438 12.4619 8.99463 12.7449C9.93433 13.0576 10.926 13.2139 11.9695 13.2139C13.2761 13.2139 14.49 12.9858 15.6113 12.53C16.2095 12.2869 16.7812 11.9788 17.3267 11.606C17.9019 11.2126 18.4592 10.7383 18.999 10.1824C19.2026 9.97241 19.4133 9.74146 19.6309 9.48901C19.7571 9.34253 19.9285 9.1377 20.145 8.87451C20.208 8.79785 20.2546 8.74121 20.2849 8.70483Z" clip-rule="evenodd" fill="#AAACB5" fill-opacity="1.000000" fill-rule="evenodd"/>
		<path id="Line 6" d="M5.48 10.55L3.94 12.27" stroke="#AAACB5" stroke-opacity="1.000000" stroke-width="1.000000" stroke-linecap="round"/>
		<path id="Line 7" d="M7.88 12.38L6.7 14.83" stroke="#AAACB5" stroke-opacity="1.000000" stroke-width="1.000000" stroke-linecap="round"/>
		<path id="Line 9" d="M18.86 10.55L20.39 12.27" stroke="#AAACB5" stroke-opacity="1.000000" stroke-width="1.000000" stroke-linecap="round"/>
		<path id="Line 10" d="M16.11 12.27L17.29 14.72" stroke="#AAACB5" stroke-opacity="1.000000" stroke-width="1.000000" stroke-linecap="round"/>
		<path id="Line 8" d="M12 13.21L12 16.11" stroke="#AAACB5" stroke-opacity="1.000000" stroke-width="1.000000" stroke-linecap="round"/>
	</g>
</svg>
