<svg width="21.174316" height="11.765625" viewBox="0 0 21.1743 11.7656" fill="none" xmlns="http://www.w3.org/2000/svg" xmlns:xlink="http://www.w3.org/1999/xlink">
	<desc>
			Created with Pixso.
	</desc>
	<defs/>
	<path id="Union" d="M0 5.88281C-0.00146484 5.74463 0.0556641 5.60767 0.16748 5.50732C0.422363 5.20239 0.626465 4.96191 0.780762 4.78589C1.05664 4.47021 1.3252 4.17969 1.58594 3.91406C2.28125 3.20654 2.99756 2.59961 3.73486 2.09326C4.65186 1.46362 5.61719 0.976074 6.63086 0.630615L6.63086 0.630615C7.86426 0.210205 9.16895 0 10.5454 0C12.27 0 13.8667 0.306641 15.335 0.919922L15.3354 0.920166C16.019 1.20581 16.6753 1.55786 17.3037 1.97656C18.0303 2.46094 18.7354 3.0459 19.4185 3.73169C19.6768 3.99097 19.9438 4.27661 20.2197 4.58887C20.3804 4.77051 20.5986 5.02466 20.8745 5.35156C20.9263 5.41284 20.9692 5.46387 21.0039 5.50464C21.1177 5.60547 21.1758 5.74365 21.1743 5.88281C21.1758 6.02197 21.1177 6.16016 21.0039 6.26099C20.9692 6.30176 20.9263 6.35278 20.8745 6.41406C20.5986 6.74097 20.3804 6.99512 20.2197 7.17676C19.9438 7.48901 19.6768 7.77466 19.4185 8.03394C18.7354 8.71973 18.0303 9.30469 17.3037 9.78906C16.6753 10.2078 16.019 10.5598 15.3354 10.8455L15.3354 10.8457C13.8667 11.459 12.27 11.7656 10.5454 11.7656C9.16895 11.7656 7.86426 11.5554 6.63086 11.1353C5.61719 10.7896 4.65186 10.302 3.73486 9.67236C2.99756 9.16602 2.28125 8.55908 1.58594 7.85156C1.3252 7.58594 1.05664 7.29541 0.780762 6.97974C0.626465 6.80371 0.422363 6.56323 0.16748 6.2583C0.0556641 6.1582 -0.00146484 6.021 0 5.88281ZM1.5332 6.32129C1.43164 6.20508 1.30664 6.05884 1.15771 5.88281C1.30664 5.70679 1.43164 5.56055 1.5332 5.44434C1.79688 5.14331 2.05225 4.8667 2.29932 4.61499C2.94971 3.95337 3.6167 3.38745 4.30078 2.91772C5.13281 2.34644 6.0083 1.90308 6.92773 1.58691L6.92773 1.58691C8.06641 1.19556 9.27246 1 10.5454 1C12.1694 1 13.668 1.29395 15.04 1.88184C15.6333 2.13599 16.2031 2.44482 16.749 2.80884C17.4204 3.2561 18.0737 3.79907 18.71 4.43726C18.9541 4.68262 19.208 4.95386 19.4707 5.25122C19.6074 5.40576 19.7886 5.61621 20.0142 5.88281C19.7886 6.14941 19.6074 6.35986 19.4707 6.5144C19.208 6.81177 18.9541 7.08301 18.71 7.32837C18.0737 7.96655 17.4204 8.50952 16.749 8.95679C16.2031 9.3208 15.6333 9.62988 15.04 9.88379C13.668 10.4717 12.1694 10.7656 10.5454 10.7656C9.27246 10.7656 8.06641 10.5701 6.92773 10.1787C6.0083 9.86279 5.13281 9.41919 4.30078 8.84814C3.6167 8.37817 2.94971 7.81226 2.29932 7.15063C2.05225 6.89893 1.79688 6.62231 1.5332 6.32129ZM6.2832 5.88281C6.2832 3.48633 8.21094 1.54346 10.5889 1.54346C12.9668 1.54346 14.8945 3.48633 14.8945 5.88281C14.8945 8.27954 12.9668 10.2222 10.5889 10.2222C8.21094 10.2222 6.2832 8.27954 6.2832 5.88281ZM7.2832 5.88281C7.2832 4.03857 8.76318 2.54346 10.5889 2.54346C12.4146 2.54346 13.8945 4.03857 13.8945 5.88281C13.8945 7.72705 12.4146 9.22217 10.5889 9.22217C8.76318 9.22217 7.2832 7.72705 7.2832 5.88281Z" clip-rule="evenodd" fill="#73767C" fill-opacity="1.000000" fill-rule="evenodd"/>
</svg>
