<svg width="20.000000" height="20.000000" viewBox="0 0 20 20" fill="none" xmlns="http://www.w3.org/2000/svg" xmlns:xlink="http://www.w3.org/1999/xlink">
	<desc>
			Created with Pixso.
	</desc>
	<defs>
		<clipPath id="clip119_3445">
			<rect id="Frame 48097793" width="20.000000" height="20.000000" fill="white" fill-opacity="0"/>
		</clipPath>
	</defs>
	<rect id="Frame 48097793" width="20.000000" height="20.000000" fill="#FFFFFF" fill-opacity="0"/>
	<g clip-path="url(#clip119_3445)">
		<path id="Vector" d="M3.06 8.87C3.06 5.68 5.65 3.08 8.84 3.08C12.03 3.08 14.62 5.68 14.62 8.87C14.62 12.06 12.03 14.65 8.84 14.65C5.65 14.65 3.06 12.06 3.06 8.87ZM14.23 13.37C15.29 12.11 15.87 10.52 15.86 8.87C15.86 4.99 12.72 1.84 8.84 1.84C4.96 1.84 1.82 4.99 1.82 8.87C1.82 12.75 4.96 15.89 8.84 15.89C10.56 15.89 12.13 15.27 13.35 14.25L17.45 18.31C17.57 18.43 17.73 18.49 17.89 18.49C18.01 18.49 18.13 18.45 18.23 18.38C18.33 18.31 18.41 18.22 18.46 18.1C18.51 17.99 18.52 17.86 18.49 17.74C18.47 17.62 18.41 17.51 18.32 17.42L14.23 13.37Z" fill="#AAACB5" fill-opacity="1.000000" fill-rule="nonzero"/>
	</g>
</svg>
